<svg xmlns="http://www.w3.org/2000/svg" width="1279.97" height="1259.26" viewBox="0 0 1279.97 1259.26"><path d="M853.18,1242.56V1134.23c0-16.51.6-33-.1-49.5C850.14,1015.91,823,958.66,770.22,914a82.11,82.11,0,0,0-8.15-5.78c-2.75-1.82-5.61-3.49-9.4-5.82,9.09-1.2,17.2-2.2,25.29-3.37,57.1-8.25,112.18-22.87,162.58-52,47.81-27.61,85.7-64.85,106.39-116.72,32.55-81.63,25-160.08-22.79-234.13-7.47-11.58-16.23-22.37-24.85-33.15-2.84-3.56-3.41-6.44-2.22-10.74,10.84-39,17.59-78.65,15.82-119.34-.79-18.26-4.12-35.95-12.55-52.52-5.12-10.06-11.53-14.67-23.77-13.65-45.35,3.76-85.89,19.25-121.38,47.51C844.42,322.86,834.86,333,825,342.63c-2.2,2.14-3.75,2.9-6.8,1.87-52.46-17.62-106.43-25.49-161.7-24.41a467.86,467.86,0,0,0-139.32,23.64c-4.58,1.52-7.15.91-10.54-2.78-37.15-40.49-82.61-65.53-137.4-72.72-7.09-.92-14.31-.76-21.43-1.48-3.85-.38-6.18,1.21-8.4,4-10.57,13.41-15.18,29.1-17.48,45.61-4.91,35.34-.36,70.13,6.53,104.73,2.14,10.76,4.81,21.43,7.75,32,1,3.75.3,6.12-2.11,8.91C309.28,490.65,290,522.51,278,558.59c-28.56,86.4-8.35,202.91,87.71,271.48,41.05,29.3,86.78,47.81,135.61,58.73,25,5.58,50.46,8.8,75.72,13.08.75.13,1.5.24,3.11.49-5.24,3.42-9.91,6.18-14.27,9.37-28.48,20.77-48,48.65-63,80a18.17,18.17,0,0,0-1.84,4.09c-1.87,9.56-8.16,12.19-17.26,13.12-31.71,3.25-63.43,5-95.31,4-23.47-.76-42.7-9.57-57.67-28.15-12.11-15-24.58-29.86-38.07-43.63a128.11,128.11,0,0,0-55-33.25A21.3,21.3,0,0,0,220,910.33c-6.3,3.78-7.49,10.34-3.1,16.24a20.65,20.65,0,0,0,4.53,4.61c25,17.54,40.41,42,51.16,69.9,6,15.52,11.43,31.25,17.19,46.86,16.64,45.14,50.65,67.45,97.09,70.86,28.52,2.1,57.29.85,85.95,1.09,2.14,0,4.29,0,6.57,0,2.84,46.66-3.33,93.35,4,139.36C244.82,1204.63,7.22,977.3.16,653.86c-7.35-336.52,243-609.37,558.7-648.74C905.53-38.11,1206,197.43,1267.71,515.66,1332.85,851.34,1130.39,1147,853.18,1242.56Z"/></svg>