<svg xmlns="http://www.w3.org/2000/svg" width="1116.85" height="1175.04" viewBox="0 0 1116.85 1175.04"><path d="M825.36,180.84c8.09-11,17.55-17.86,29.54-20.56,18.69-4.2,34.91.65,48.49,14.24q34.8,34.85,69.65,69.66c9.32,9.31,18.66,18.58,27.93,27.94,22.71,22.93,21.07,55.71-3.78,76.29-.38.31-.68.72-2.17,2.31,1.55,1,3.35,1.7,4.61,2.95q30.5,30.33,60.87,60.77c36,35.89,55.28,79.28,56.32,130,.36,17.84-2.51,35.84-4.89,53.63-5.48,40.93-11.47,81.78-17.44,122.64-2.54,17.42-3.92,35-10.72,51.67-27.86,68-117.95,87.48-170.45,36C858.73,754.74,805,700.28,750.9,646.17a46.28,46.28,0,0,1-3.63-4.76l-2.27-.64c-1.14,1.82-2,4-3.47,5.43q-245.16,245.24-490.4,490.42c-17.89,17.9-38.64,30.57-63.56,35.54-43.09,8.61-81-2.1-112.78-32.44-16.73-16-33.79-32-48.23-49.94C-11.7,1042.21-8.19,973.2,34.31,929.37c36.67-37.8,74.32-74.65,111.56-111.89Q337.51,625.84,529.19,434.25c1.51-1.51,3.3-2.73,5.19-4.27-2-2.1-3.19-3.44-4.47-4.71q-59.74-59.76-119.49-119.53c-44.28-44.53-46.87-114.1-6.07-160.83,5.58-6.39,11.77-12.25,17.78-18.27q44.7-44.74,89.45-89.45c49.56-49.51,121.89-49.6,171.36-.18q69.52,69.45,138.95,139A37.89,37.89,0,0,1,825.36,180.84Zm192,371.34c-.67-28.16-9.59-49.17-27.06-66.62Q914.89,410.3,839.63,335,725.78,221.11,611.93,107.27c-9.29-9.3-19.34-9.72-28-1q-51.32,51.2-102.49,102.57a21.87,21.87,0,0,0-5,7.88c-2.89,8.32.76,14.65,6.61,20.49Q686.39,440.38,889.68,643.68q45.08,45.08,90.14,90.17c2.33,2.33,4.94,5.06,8.1,3,2.1-1.38,3.58-4.53,4.2-7.15,1.2-5.17,1.6-10.53,2.35-15.8q8.81-61.56,17.61-123.12C1014.07,576.77,1015.89,562.74,1017.32,552.18ZM604.59,500.46c-1.13,1.07-2.23,2.06-3.29,3.12Q355,749.82,108.79,996.07c-11.44,11.45-11.37,24.91.11,36.46q16.57,16.67,33.21,33.26c12.61,12.61,25.68,12.63,38.28,0l491.13-491c1.28-1.28,2.51-2.61,3.64-3.8Z"/></svg>