<svg xmlns="http://www.w3.org/2000/svg" width="1173.59" height="1173.6" viewBox="0 0 1173.59 1173.6"><path d="M1173.53,586.77q0,238.74-.12,477.48c-.09,45.92-21.43,79.45-62.83,99.7-14.93,7.31-31,9.59-47.57,9.59q-401.49,0-803,0c-50.49,0-101,.22-151.49-.08-39.61-.23-70.63-17-92.26-50.34C4.72,1105.3,0,1085.39,0,1064.24q.06-92,0-184,0-385,0-770c0-32.16,10.74-59.7,34.39-81.73C54.1,10.18,77.7,1,104.55.09c1.84-.06,3.67-.07,5.5-.07Q586.79,0,1063.52.1c46.59,0,80.45,21.46,100.76,63.53,7.06,14.65,9.27,30.46,9.27,46.65Q1173.51,348.53,1173.53,586.77Zm-546.69,373v-6.12c0-84.16-.06-168.32.16-252.48,0-19.18,1.69-38.28,6.81-56.9,6.62-24.07,18.6-44.16,42-55.45,17-8.19,35.15-10,53.64-8.83,33.62,2.13,55.29,19.42,65.36,51.6,6.29,20.1,7.93,40.84,8,61.7q.27,130,.21,260v6.4H960.37v-6.27c0-62.66.19-125.32-.07-188-.18-43.65-.38-87.31-1.69-130.94a296.15,296.15,0,0,0-14.88-84.83c-13.8-41.39-38.17-74-79.22-91.43-42.43-18-87-21.55-131.83-12.83-46.57,9.06-83.65,33.44-108.43,74.86A27.15,27.15,0,0,1,622,523l-1.21-.36V454.19H470.11V959.75Zm-256.31,0V454.18H214.08V959.8Zm11.84-672.73c-2.45-51.54-44.6-91.17-94.63-89-51.35,2.24-91.18,45.06-88.73,95.38,2.46,50.55,45.12,90.23,94.63,88C344.65,379.2,384.73,336.55,382.37,287.07Z"/></svg>