<svg xmlns="http://www.w3.org/2000/svg" width="1225.26" height="875.13" viewBox="0 0 1225.26 875.13"><path d="M387.62,875.1q-136,0-271.95,0c-54-.06-100.33-36.25-112.74-88-6.15-25.64-2.4-50.21,9.28-73.73,29-58.39,72.13-103.94,126.54-139.1,56.15-36.28,117.81-57.82,184-66.25,102.19-13,199.55,2.34,290.41,52.15,61.24,33.56,110.26,80,144.22,141.58,10.49,19,18.29,38.79,18.37,61,.17,46.07-30.35,88.49-76,105.39a116.89,116.89,0,0,1-41.1,7.07Q523.1,875.06,387.62,875.1Zm.26-100H656.27c1.67,0,3.34.07,5,0,11.24-.63,16.45-9.5,11.41-19.4-1.36-2.66-2.73-5.33-4.2-7.94-25.72-45.51-63.39-78.52-109.13-102.56C492.41,610,421,598,346,606c-53.22,5.66-103.06,21.7-148.65,50-40.38,25.09-73.21,57.48-94.89,100.33-4,7.86-1.61,14.44,6.69,17.55a25.67,25.67,0,0,0,8.8,1.2Q252.94,775.14,387.88,775.1Z"/><path d="M600.65,224.07c-2.38,76.59-30.66,139.34-91.54,185.38-40.46,30.6-86.66,44.4-137.38,39.71-74.7-6.91-129.35-45.51-166.56-109.52C182.85,301.25,173,259.21,175.64,215c4.75-80.56,40-144.13,109.51-186.69,71.91-44,167.27-35.92,232.49,18.87,46.64,39.17,73.22,89.31,80.77,149.61C599.59,206.21,600,215.71,600.65,224.07ZM275.2,222.3c.33,31.53,8.2,58.08,25.36,81.59,39.55,54.18,111.84,61.83,159.44,17,53-50,53.83-138.87,1.76-189.81-40.35-39.46-100.49-41.58-143-4.46C289.17,152.45,276.17,186.08,275.2,222.3Z"/><path d="M1000.79,300.1q93,0,185.94,0c22.24,0,39,16.88,38.52,38.48A37.6,37.6,0,0,1,1189.7,375c-1.33.06-2.66.06-4,.06q-185.43,0-370.87,0c-19.63,0-34.93-11.77-38.64-29.58-4.86-23.38,12.29-45.12,36.17-45.33,27.66-.25,55.31-.07,83-.08Z"/><path d="M1000.26,200.1q-93.21,0-186.43,0c-22.41,0-39.2-17.17-38.51-39a37.64,37.64,0,0,1,35-35.9c1.49-.08,3-.07,4.49-.07q185.45,0,370.87,0c19.66,0,34.92,11.75,38.64,29.59A37.29,37.29,0,0,1,1188.2,200c-24.83.26-49.65.07-74.48.07Q1057,200.12,1000.26,200.1Z"/><path d="M924.75,550.1c-37.31,0-74.63.11-111.94-.05a37.44,37.44,0,0,1-.94-74.87c15.82-.26,31.65-.07,47.48-.08q88.7,0,177.41,0c21.23,0,37.83,15.68,38.48,36a37.36,37.36,0,0,1-37.55,38.92C1000.05,550.21,962.4,550.1,924.75,550.1Z"/></svg>