<svg xmlns="http://www.w3.org/2000/svg" width="1150.12" height="1199.19" viewBox="0 0 1150.12 1199.19"><path d="M282,95.17c17.18-.15,33.1,5.76,49.35,9.92,15,3.83,29.82,8.31,44.87,11.86,30.37,7.15,56.11-1.27,76.34-24.89,14.74-17.2,28.67-35.1,42.9-52.74,42.28-52.41,117-52.43,159.28,0,13.71,17,27.36,34,41.27,50.85,21.5,26,48.75,34.56,81.36,26.07,24.31-6.33,48.38-13.8,72.93-18.93,56.2-11.73,112.58,30.27,117.83,87.4,2.13,23.21,3,46.55,3.89,69.86,1.35,35.92,18.69,60.64,52.17,73.49,20.19,7.75,40.39,15.48,60.53,23.36,41.83,16.38,66.6,53.61,65.33,98.46-.54,18.76-6.6,35.87-16.86,51.55q-17.79,27.18-35.47,54.41-28.35,43.76,0,87.58c11.94,18.45,24.19,36.71,36,55.26,32,50.4,15.81,115.85-36.34,143.16-17,8.9-35.66,14.65-53.57,21.81-9.73,3.89-19.84,7-29.16,11.69-27.06,13.66-40.8,36.23-42.43,66.34-1.33,24.46-2,49-4.1,73.36-3.76,43.78-40.92,81.66-84.45,87.69-18.29,2.54-35.76-.44-53.22-5.37-18.57-5.24-37.19-10.37-55.94-14.92-31-7.52-57,1.29-77.47,25.52-14.52,17.17-28.43,34.87-42.56,52.36-41.92,51.88-116.64,51.89-158.64,0-13.83-17.1-27.55-34.29-41.57-51.23-21.52-26-48.78-34.55-81.39-26-24.31,6.34-48.37,13.81-72.93,18.93-56.18,11.7-112.54-30.28-117.81-87.42-2.15-23.21-3-46.55-3.89-69.86-1.35-35.86-18.72-60.67-52.16-73.54-21.11-8.12-42.35-16-63.3-24.48A99.9,99.9,0,0,1,15.27,700.82C27.37,681.29,40.38,662.33,52.8,643c18.54-28.87,18.55-57.88,0-86.75-12-18.64-24.35-37-36.25-55.68-31-48.65-17-111.54,32-140.73,10.75-6.41,23-10.47,34.66-15.18,14.81-6,29.8-11.5,44.7-17.23,30.76-11.81,49-37.82,50.25-70.85,1-24.14,1.89-48.3,4-72.36,3.84-43.87,40.78-81.75,84.46-87.58C271.71,96,276.87,95.65,282,95.17ZM511.58,717,497,700.46c-23.47-26.64-46.57-53.6-70.5-79.81-18.91-20.72-49.55-21.71-70.05-3.36a49.73,49.73,0,0,0-4,70.11q63.46,72.68,127.4,144.94c9.36,10.62,21.28,16.6,35.44,17.11,20.08.73,35.06-8.24,45.89-25q97.18-150.16,194.49-300.24c15.39-23.76,31-47.41,46.14-71.3,16.75-26.35,7.74-59.58-19.45-72.85-23.56-11.49-50.16-3.51-65.23,19.73Q643.69,513,570.37,626.22C550.9,656.26,531.45,686.32,511.58,717Z"/></svg>