<svg xmlns="http://www.w3.org/2000/svg" width="1150.09" height="1199.13" viewBox="0 0 1150.09 1199.13"><path d="M867.1,1103.73c-14.79.49-29.66-4.77-44.77-8.75-15.77-4.15-31.44-8.68-47.28-12.54-31.56-7.69-57.92,1.25-78.69,26.07-14.11,16.87-27.74,34.14-41.54,51.27-42.32,52.51-117.57,52.46-159.72-.11-13.65-17-27.23-34.13-41.2-50.9-21-25.21-47.64-34.19-79.55-26.18-24.69,6.19-49,13.9-73.91,19.18-57.15,12.12-113.63-30.32-118.55-88.64-1.94-23.07-3-46.23-3.85-69.37-1.32-34.52-18.84-59.65-51.19-72.18-20-7.76-40.07-15.37-60.12-23C24.09,832.29-1.47,794.31.07,748.92c.63-18.57,6.62-35.54,16.8-51.08,12.05-18.39,24.14-36.75,36-55.29,18.22-28.56,18.26-57.32,0-85.89-12-18.82-24.49-37.32-36.47-56.15C-17.07,447.88,2.71,378.71,58.86,354c23.27-10.23,47.54-18.18,71.13-27.72,25.54-10.33,41.36-29.36,46.39-56.43,2-10.9,1.88-22.22,2.56-33.36,1-17.13,1.58-34.29,3-51.39,3.6-43.94,40.39-82.4,84.14-88.59a105.93,105.93,0,0,1,43.07,2.61c22.16,6,44.25,12.33,66.56,17.72,30.71,7.43,56.74-1.26,77.16-25.26,14.68-17.26,28.59-35.17,42.82-52.81C537.27-12.8,612.34-13,654.09,38.47c14.07,17.34,27.87,34.9,42.18,52,20.88,25,47.42,34,79.13,26.1,24.86-6.19,49.36-14,74.39-19.29,56.61-12,113.22,30.21,118.27,87.89,2.05,23.39,3,46.9,3.9,70.37,1.32,34.52,19.41,60,51.86,72.21q31,11.73,62,23.81a100.38,100.38,0,0,1,49,146.88c-12,19.4-24.85,38.28-37.23,57.45q-28.1,43.52-.07,87.17c11.54,17.92,23.29,35.71,34.87,53.61,37,57.19,13.94,127.56-49.72,152q-30.29,11.64-60.58,23.24c-30.6,11.78-48.75,37.65-50.07,70.45-1,23.63-1.8,47.31-3.9,70.86C963.51,1064.66,920,1103.7,867.1,1103.73Zm186-649.2-1.2-.49c0-12.22-7.36-22.64-19.67-27.45-17.19-6.74-34.59-13-51.67-20-54.84-22.46-87.35-63-95.51-121.74-3-21.55-3-43.52-4-65.32-1-21.22-18-34-38.52-28.5C825,195.73,807.59,200.9,790,205.14c-59.6,14.34-110.79-.59-152.39-45.77-13.4-14.55-25.17-30.62-37.62-46.05-14.79-18.33-35-18.4-49.79-.12-11.72,14.51-23,29.43-35.3,43.44-38.24,43.59-86.27,61.19-143.42,50.84-21.7-3.94-42.84-11-64.25-16.54-20-5.23-37.09,7.34-38.13,28-.94,18.63-1.44,37.31-3,55.9-5.2,62.09-36.67,105.74-93.7,130.61-17.52,7.64-35.65,13.86-53.49,20.77-20.26,7.85-26.65,27.22-14.94,45.38,9.48,14.7,19.32,29.16,28.55,44q52.19,83.91,0,168c-9.41,15.13-19.52,29.82-29.09,44.85-10.91,17.14-4.32,36.89,14.59,44.2,18.15,7,36.57,13.42,54.44,21.09,52.91,22.7,84.39,62.67,92.46,119.73,3.07,21.7,3.06,43.86,4.12,65.82,1,21.62,17.89,34.32,38.73,28.76,17.36-4.62,34.61-9.7,52.07-13.91,62-15,114.17,1.54,156.08,49.58,11.82,13.55,22.73,27.9,34,41.91,15.14,18.77,35.21,18.66,50.41-.23,11.38-14.16,22.4-28.63,34.35-42.29,39.69-45.39,89.39-62.66,148.55-50.55,20,4.1,39.58,10.35,59.37,15.58,20.53,5.43,37.52-7.33,38.45-28.59.79-18.31,1.43-36.65,2.93-54.91,5-61.66,36-105.33,92.52-130.37,17.47-7.74,35.64-13.9,53.5-20.74,21.72-8.33,28.06-27.55,15.45-47-9.33-14.39-19-28.6-28-43.17q-51.88-83.7,0-167.53c9.31-15,19.41-29.49,28.65-44.53C1049.23,466.17,1050.82,460.14,1053.11,454.53Z"/><path d="M511.43,716.94c16.39-25.3,32.43-50,48.45-74.76q78.64-121.39,157.3-242.79c14.46-22.31,40-30.43,63.08-20.25,28.7,12.65,38.6,46.85,21.19,74.06-18.23,28.47-36.74,56.76-55.12,85.14q-92.77,143.2-185.49,286.43c-7.17,11.07-16.52,19.25-29.31,22.71-20.66,5.6-38.21-.1-52.37-15.9-15.79-17.62-31.29-35.5-46.92-53.27-26.52-30.16-53.16-60.22-79.54-90.51-24.83-28.51-12.13-71.88,23.95-81.56,18.72-5,35.75-.69,48.93,13.57,19.23,20.8,37.62,42.37,56.36,63.61C491.63,694.41,501.29,705.42,511.43,716.94Z"/></svg>