<svg xmlns="http://www.w3.org/2000/svg" width="900.06" height="1100.16" viewBox="0 0 900.06 1100.16"><path d="M900.05,550.59q0,199,0,398c0,68.84-43.6,126.91-109.2,145.84a148.49,148.49,0,0,1-41.44,5.68q-299.26,0-598.51,0C74.58,1100,12.54,1046,1.41,970.25A151.37,151.37,0,0,1,.06,948.33Q0,550.05,0,151.78C0,79.45,47.41,19.67,117.73,3.73A152.23,152.23,0,0,1,150.92.18q299-.31,598-.12c76.62,0,138.73,54.08,149.73,130.08A164.93,164.93,0,0,1,900,153.57Q900.11,352.08,900.05,550.59ZM625.23,100c-.1,1.39-.19,2.34-.24,3.3-2.26,40.69-34.58,71.6-75.34,71.67q-99.75.18-199.5,0a74.54,74.54,0,0,1-72.52-55.68c-1.64-6.19-2.22-12.66-3.34-19.29h-4.88q-58.24,0-116.5,0c-31.72,0-52.89,21.23-52.9,53v794c0,31.79,21.18,53,52.9,53q297.24,0,594.5,0c31.37,0,52.63-21.31,52.63-52.77q0-397.27,0-794.54c0-31.46-21.26-52.74-52.65-52.76q-58.5,0-117,0Z"/><path d="M587.63,434.52c12.8-12.84,25.36-25.47,38-38.08,3.89-3.89,7.69-7.88,11.77-11.56a37.35,37.35,0,0,1,52.92,52.6c-10.87,11.73-22.47,22.78-33.77,34.11q-20.31,20.34-40.66,40.65c-17.31,17.24-39.29,17.28-56.59,0-16.06-16-32.18-31.93-48-48.12-10.56-10.78-13.95-23.77-9.2-38.2s15.06-23,30-25.4c12.72-2.08,23.64,2.13,32.74,11.14C572.28,419.2,579.8,426.72,587.63,434.52Z"/><path d="M587.61,684.57c15.84-15.89,31.4-31.42,46.87-47.05,7.87-8,17.16-12.7,28.46-12.36,15.56.48,27.14,7.87,33.58,22,6.36,14,4.23,27.3-5.27,39.37a55.22,55.22,0,0,1-4.43,4.75q-35.34,35.37-70.7,70.71c-17.73,17.7-39.51,17.66-57.31-.1-16-16-32.29-31.83-48-48.16-19.78-20.56-11.11-53.9,15.94-62,14.35-4.28,27-.63,37.68,9.71C572.08,668.89,579.53,676.51,587.61,684.57Z"/><path d="M312.84,425.08c25.15,0,50.3-.14,75.45.06a37.25,37.25,0,0,1,35.61,28.34c4,16.77-3.34,34.21-18.62,41.85a41.49,41.49,0,0,1-17.62,4.53q-75.21.52-150.41.15a37.45,37.45,0,0,1,.13-74.89C262.53,424.94,287.68,425.08,312.84,425.08Z"/><path d="M312.55,750.07c-25.15,0-50.3.14-75.45,0a37.46,37.46,0,0,1-21.52-67.81,35.21,35.21,0,0,1,20.95-7.08c50.64-.06,101.27-.18,151.91,0,20.32.09,36.56,17.09,36.58,37.36S408.83,749.76,388.51,750C363.19,750.29,337.87,750.07,312.55,750.07Z"/></svg>