<svg xmlns="http://www.w3.org/2000/svg" width="1493.52" height="1103.79" viewBox="0 0 1493.52 1103.79"><path d="M889.36,84.34Q896.52,63.73,903.71,43c2.45-7.07,4.81-14.17,7.3-21.23A32.46,32.46,0,0,1,945.5.23a863.21,863.21,0,0,1,133.41,24.71C1134.43,39.81,1188,59.66,1237.62,89c13.16,7.79,25.62,16.77,38.37,25.25,11.7,7.79,20.77,18.16,28.71,29.6,22.53,32.45,39.49,67.87,55,104,39.47,92,68.36,187.47,91,284.88q18.69,80.29,29.79,162a1397.79,1397.79,0,0,1,13,178.33,42.05,42.05,0,0,1-6,22.33c-26.53,44.82-63.25,79.62-106.26,108.18-52.07,34.56-109.13,58.07-168.94,75.34-38.61,11.15-77.82,19.44-117.82,23.63a126,126,0,0,1-22.39.48c-8.33-.64-15.19-5.08-20.11-11.78-20.81-28.34-41.43-56.8-62.11-85.22a9.82,9.82,0,0,1-.72-1.77c12.63-3.13,25.24-5.88,37.63-9.4q37.42-10.65,74.62-22.07c12.8-3.94,22.66-12.52,31.27-22.46,17.26-19.91,13.18-42.73-2.42-61.24-15-17.81-34.84-21.48-56.74-16.71a82.5,82.5,0,0,0-15.65,5c-37.44,16.58-77,25.49-117.07,32.46-81.78,14.22-164.3,16.94-247.05,14.72-56.18-1.5-112.06-6.38-167.08-18.68a433.81,433.81,0,0,1-94.41-33.22C410,861.93,382.63,866.25,365.36,883c-12.12,11.72-19.7,25.67-16.6,43.35,1.73,9.83,7.08,17.86,13.78,25,16.13,17.3,36.24,27.79,58.6,34.7,26.63,8.22,53.85,13.6,81.32,18,.65.1,1.29.27,2.79.6-1.13,1.74-2,3.2-3,4.56-19.27,26.15-38.74,52.16-57.78,78.47-9,12.46-20.62,17.27-35.81,15.95-42.12-3.67-83.31-12.13-123.91-23.61-62.17-17.57-121.4-41.9-175.23-78.14C67.71,973.68,32,939.44,6.09,895.7A42.75,42.75,0,0,1,0,872.9,1424.39,1424.39,0,0,1,15.51,677.77a1841.74,1841.74,0,0,1,94.33-370.86c18.29-49.53,38.73-98.15,65.85-143.66,3.83-6.43,8.15-12.57,12.19-18.88,11.46-17.9,28.41-29.73,45.66-41.2,45.4-30.21,94.9-51.66,146.69-68.06A842.68,842.68,0,0,1,548.61.18a31.85,31.85,0,0,1,33.73,21.15c7,19.21,14,38.44,20.7,57.79,1.51,4.36,3.49,5.37,7.86,4.83,24.13-3,48.26-5.88,72.44-8.44,39-4.14,78.14-5,117.25-.8,28.81,3.06,57.59,6.41,86.39,9.62C887.62,84.4,888.27,84.34,889.36,84.34ZM1066.79,610c-.06-25.3-2.5-45.76-8.17-65.75-8.5-30-22-57.14-46.09-78-31.43-27.2-72.09-27.44-103.93-.83a125.4,125.4,0,0,0-31.7,40.13c-27.09,53.79-30.08,109.77-13.46,167,8.22,28.3,22.25,53.44,45.18,72.8,30.43,25.69,69,26.44,100.42,2a119.55,119.55,0,0,0,27.57-30.73C1058.17,682.76,1066.25,645.12,1066.79,610Zm-426.6-9.29c-.94-8-2-23-4.6-37.65-5.35-30-16.12-57.8-34.35-82.66-31.74-43.3-82.9-40.87-116.9-15-16.66,12.69-28.7,29.24-37.34,48.07-24.6,53.61-26.56,108.68-8.71,164.49,8.35,26.09,21.93,49.22,43.19,67.19,31,26.21,70.31,26.78,102.06,1.53a119,119,0,0,0,26.18-29.31C631.14,684,639.49,646.91,640.19,600.69Z"/></svg>