<svg xmlns="http://www.w3.org/2000/svg" width="1472.04" height="1344.01" viewBox="0 0 1472.04 1344.01"><path d="M0,797.62a93.16,93.16,0,0,1,2.82-10.45Q49.49,662.34,96.29,537.58q96.39-257,192.81-514.05c7.46-19.88,26.58-28.71,44.37-20.44,9.16,4.26,14.7,11.53,17.78,21.08,12.82,39.74,25.82,79.42,38.71,119.14q59.12,182,118.14,364.09c1.15,3.56,2.7,4.79,6.56,4.79q221.49-.18,443,0c4,0,5.34-1.41,6.47-4.89q78.3-241.41,156.77-482.74C1125.84,9.33,1137.06.38,1151.36.1c14.47-.28,26,8.06,31.61,23q95,253.29,190,506.59,47.85,127.57,95.67,255.17c7.09,18.92,3.31,31.67-13,43.52q-348.44,253.32-696.79,506.72c-11.43,8.32-23,11.94-36.25,5.83-3.58-1.64-6.76-4.23-10-6.57q-203.73-148.1-407.44-296.24Q160.46,932.93,15.73,827.77C6,820.74.29,811.91,0,797.62ZM194.24,576.09l454.81,574.52a9.77,9.77,0,0,0-.64-4.62Q556.67,863.6,465,581.18c-1.33-4.1-3.18-5.19-7.31-5.18q-128.73.18-257.47.09Zm1083.74,0h-6.39q-128.49,0-257-.13c-4.55,0-6.2,1.51-7.52,5.58q-89.26,275.09-178.72,550.1c-2,6.17-3.94,12.37-5.91,18.55l.76.35Zm56.12,32.26L908.92,1145.42a4.06,4.06,0,0,0,3.29-.9Q1155,967.91,1397.93,791.36c3.07-2.23,3.32-4,2.07-7.36q-23.91-63.25-47.55-126.6C1346.45,641.4,1340.47,625.38,1334.1,608.35ZM562.32,1146.18l.94-.81-425-536.86c-1,2.32-1.61,3.81-2.19,5.34Q104.39,698.42,72.58,783c-1.71,4.52-.92,6.52,2.82,9.24q210.21,152.65,420.27,305.53Q529,1122,562.32,1146.18Z"/></svg>