<svg xmlns="http://www.w3.org/2000/svg" width="1199.4" height="1100.24" viewBox="0 0 1199.4 1100.24"><path d="M99.75,518.06c-7,5.82-13.06,11.05-19.34,15.93-28.55,22.18-71,7.59-79-27.46-4.61-20.33,2.1-37.78,17.62-51.17,25.35-21.87,51.28-43.09,77-64.56Q283.59,234.05,471.16,77.31C493,59,514.75,40.6,536.82,22.58c36.76-30,89.32-30.23,125.89.07,68.77,57,137.15,114.42,205.7,171.67l78.26,65.38c.73.61,1.51,1.15,3.08,2.35v-6q0-39.25,0-78.5c0-30.79,21.41-52.25,52.09-52.31,15.5,0,31-.06,46.5,0,29.76.12,51.35,21.67,51.38,51.5q.1,103,0,206c0,3.45.85,5.73,3.62,8,24.65,20.38,49.07,41.05,73.73,61.44,11.61,9.6,19.75,21.1,21.88,36.28a49.27,49.27,0,0,1-49.86,56.1,48.63,48.63,0,0,1-30.45-10.88c-6.07-4.85-12-9.88-18.85-15.55v6.76q0,224.49,0,449c0,54.88-33.22,101.78-84.4,119.57a116.05,116.05,0,0,1-38.2,6.72c-76.16.08-152.32.23-228.49,0-40.95-.13-73.81-33.73-73.86-75.1q-.16-129,0-258c0-12.75-4-16.84-16.58-16.84h-118c-10.88,0-15.41,4.56-15.41,15.5q0,129.49,0,259c0,36.45-24.51,66.49-60.18,73.94a78.81,78.81,0,0,1-15.87,1.5q-111.5.13-223,0c-63.13-.1-114.6-44.17-124.54-106.59a136.6,136.6,0,0,1-1.34-21.41q-.1-223.5,0-447Zm900,177.56q0-128.24,0-256.47c0-3.23-.77-5.48-3.37-7.65Q803,270.08,609.72,108.53c-7.41-6.19-12.55-6.15-20,0Q396.41,270.08,203,431.54c-2.63,2.19-3.33,4.46-3.33,7.67q.09,254.21.06,508.43c0,31.13,21.32,52.53,52.35,52.54q78.24.06,156.48,0c11.89,0,16.16-4.3,16.16-16.26q0-129,0-258c0-42.69,33-75.69,75.76-75.74q99.24-.13,198.48,0a77.42,77.42,0,0,1,15.86,1.57c35.67,7.62,59.83,37.55,59.85,74.18q.1,129.5,0,259c0,10.55,4.66,15.21,15.21,15.21q79,0,158-.07a57.8,57.8,0,0,0,14.31-1.67c22.94-6,37.47-25.37,37.48-49.86Q999.79,822.11,999.75,695.62Z"/></svg>