<svg xmlns="http://www.w3.org/2000/svg" width="1280.3" height="1281.08" viewBox="0 0 1280.3 1281.08"><path d="M640.15,1280.69c-90.5,0-181,1-271.49-.27-104.9-1.49-194-41.3-266.48-117.05-51.82-54.16-84-118.77-96.5-192.69A385.8,385.8,0,0,1,.32,907.56Q-.29,640.83.12,374.09A373.73,373.73,0,0,1,253.67,20.37,364.26,364.26,0,0,1,371.86.68c179.66-.06,359.35-1.82,539,.58,137.55,1.84,243,65.1,316.16,181.3,30.85,49,47.09,103.34,52,161,.74,8.79,1.14,17.64,1.14,26.46.07,180.33.48,360.65-.08,541-.46,148.18-92.12,283.69-228.92,340.72a373.89,373.89,0,0,1-145.46,29q-132.75,0-265.48,0Zm-.13-320c176.38.08,320-143.39,320.12-319.8s-143.22-320-319.67-320.24S320.1,464.1,320.11,640.7C320.12,817.09,463.62,960.63,640,960.7ZM960.16,267.26a53.48,53.48,0,0,0,53.37,53.39c29.38,0,53.52-24.25,53.34-53.5a53.66,53.66,0,0,0-53.2-53.21C984.45,213.72,960.19,237.9,960.16,267.26Z"/><path d="M426.88,640.68A213.24,213.24,0,1,1,640.13,853.93C522.26,854,426.88,758.57,426.88,640.68Z"/></svg>