<svg xmlns="http://www.w3.org/2000/svg" width="1099.66" height="1100.22" viewBox="0 0 1099.66 1100.22"><path d="M718.45,950.29c-6.89,48.68-29.35,88-68.66,117.14-29.7,22-63.34,33-100.3,32.79-42.88-.19-80.63-14.61-112.61-43.17-31.81-28.39-50.12-64.18-55.8-106.76h-6.23q-161.49,0-323,0c-25.19,0-45.91-14.94-50.4-38.46-2.17-11.38-1.62-23.61-.38-35.25,5.16-48.58,24-91.5,56.08-128.32A74.49,74.49,0,0,1,77,732.71c13.23-7.36,23.41-17.52,31.61-29.9,15-22.62,23.83-47.89,31-73.78,11.7-42.14,18.74-85.2,23-128.64C167,456.31,169.48,412,173.9,368,182,287.31,214.06,218,274.3,162.84,321,120.08,375.57,92.23,437.24,78.06c2.09-.48,4.35-2.86,5.38-4.93,12.1-24.19,28.2-44.87,52-58.53C542.72-13,603.92-.52,638.47,44.23c7,9,12.42,19.26,18.18,29.17a9.39,9.39,0,0,0,6.66,5c94.38,23.15,170.21,72.63,220.8,157.13,23.09,38.55,36,80.79,40.55,125.38,3.08,30.15,4.46,60.47,7.13,90.67,5.69,64.4,13,128.59,32,190.73,7.79,25.4,17.58,50,34.82,70.78,6.77,8.18,14.68,15,24.38,19.51,11.13,5.17,18.83,14.14,26.1,23.52,32.26,41.58,49.66,88.55,50.53,141.33.52,30.91-21.18,52.78-52.05,52.78q-161.49,0-323,0ZM109.87,850.05H989.2c-5.06-11.76-11-22.41-18.92-31.91a9,9,0,0,0-2.49-1.63c-21.1-12.2-38.43-28.58-52.9-48-24.3-32.69-39.11-69.83-50.16-108.62-20.27-71.17-27.85-144.36-34-217.75-2.14-25.56-3.22-51.23-6.21-76.69-4.4-37.35-17.42-71.67-40.16-101.94C757.56,227.74,722,204,680.67,188.23c-19.34-7.37-39.16-13.34-59.87-14.9-25.35-1.9-44-17.68-49.15-42.66a119.6,119.6,0,0,0-4.39-16.36c-3.38-9.4-9.41-14-17.43-14-9.2,0-14.3,5.68-17.21,13.52a150.17,150.17,0,0,0-4.89,17.25c-5,21-17.63,34.72-38.41,40.53-5.22,1.46-10.87,1.37-16.28,2.21a260.27,260.27,0,0,0-79.47,25.62C321.85,236.13,282.25,295,273.79,374.79c-3.1,29.31-4.57,58.79-7,88.18-4.23,51.47-10.41,102.7-21.19,153.26-9,42.28-21.14,83.55-41.79,121.86-16.55,30.7-37.82,57.34-67.92,75.74C122,822.33,117.54,836.62,109.87,850.05ZM615.58,950.54H483.87c3.6,25.72,35.28,49.64,65.6,49.75C580.05,1000.39,611.8,976.61,615.58,950.54Z"/></svg>