<svg xmlns="http://www.w3.org/2000/svg" width="1186.94" height="1150.84" viewBox="0 0 1186.94 1150.84"><path d="M600,704.62c-11.87,1.52-23.09,2.81-34.27,4.41-43,6.12-85.08,15.66-125.72,31.12-55.1,21-103.57,51.6-141.33,97.71-29.69,36.27-49.29,77.81-62.43,122.4-9.21,31.26-16.42,63.11-25.32,94.47-4.76,16.75-9.84,33.66-17.16,49.39-22,47.22-75.32,60.76-118.3,30.86-18.92-13.16-31.14-31.67-40.67-52.18-13.6-29.25-20.73-60.36-25.64-92C1.93,944.23-.18,897.32,0,850.28c.3-73.75,16.78-143.9,47.68-210.7,43.14-93.24,107.47-169.5,188.18-232.28,84.13-65.44,178.47-110,282-135.06,26.82-6.49,54.1-11,82.15-16.66v-4.64c0-47.16-.55-94.34.2-141.49.66-41.36,19.34-73.2,55.19-94.08C699.74-10.46,754.68-3.16,791.22,33c27,26.71,53.77,53.7,80.64,80.57q140.35,140.34,280.71,280.69c22.12,22.12,33.82,48.82,34.35,80.06.54,31.83-11.49,58.71-33.87,81.1Q1102.51,606,1051.94,656.51q-129,129-258,258.11c-24.77,24.84-54.26,36.85-89.25,34.34-51.11-3.67-97.43-41.48-103.72-97.91A163.94,163.94,0,0,1,600,833.6q-.1-61,0-122Zm-483.93,312.8,2-.07c1-3.78,2.19-7.51,3-11.34,7.48-37.58,16.72-74.66,31-110.34,31.71-79.17,81.24-144.46,151-193.93,64.62-45.81,137.24-72,214.44-86.7A797.2,797.2,0,0,1,623,602.41a324.21,324.21,0,0,1,40.4-.2c19.32,1.36,31,12.38,34.75,31.51a104.54,104.54,0,0,1,1.72,19.84q.2,90,.08,180c0,1.67-.06,3.34,0,5a11.46,11.46,0,0,0,7.22,10.5c4.57,2,8.82,1.17,12.56-2,1.9-1.63,3.62-3.45,5.39-5.22L967.71,599.33q56.74-56.73,113.47-113.48c7.78-7.78,7.8-13.67.16-21.37l-.7-.71L731.37,114.52c-3.77-3.77-7.44-7.66-11.4-11.22a11.44,11.44,0,0,0-13.05-2c-4.51,2-6.81,5.7-6.91,10.68,0,1.67,0,3.33,0,5q0,84.74,0,169.47a127.74,127.74,0,0,1-1,16.94c-2.88,21.21-13.65,36.58-34.13,44.09A95.47,95.47,0,0,1,646.45,352c-23.86,3.61-48,5.93-71.62,10.46C490.06,378.71,411,409.57,338.4,456.57,265,504.12,203.93,563.88,159.53,639.72,120,707.24,98.8,780,100.12,858.58c.42,25,1.15,50,3.32,74.88s6.26,49.84,9.68,74.73C113.55,1011.34,115.05,1014.35,116.05,1017.42Z"/></svg>