<svg xmlns="http://www.w3.org/2000/svg" width="1600" height="694.61" viewBox="0 0 1600 694.61"><path d="M1600,509.42c-1.23,8.52-1.93,17.16-3.78,25.55-16.92,76.79-63.25,126.94-137.9,151-18.68,6-38.09,7.86-57.7,7.85q-269.49,0-539,0c-15.84,0-25.19-9.25-25.19-25.14q0-309.78-.13-619.54c0-12.56,5.22-20.28,16.74-24.79A345.65,345.65,0,0,1,988.82.11C1145.08,4,1278,109.13,1317.26,260.32c4.72,18.15,7.3,36.85,10.8,54.9,11-3.13,22.59-7.15,34.54-9.76,104.2-22.77,209.17,44.39,232.26,148.55,2.05,9.23,2.87,18.73,4.28,28.11.22,1.44.57,2.86.86,4.29Z"/><path d="M0,506.42c1.33-8.67,2.78-17.33,4-26,2.53-18.8,4.92-37.62,7.37-56.44.11-.82.33-1.63.47-2.45.62-3.55,2.59-5.91,6.27-5.95s5.71,2.47,6.29,5.94c1.6,9.52,3.09,19.05,4.58,28.58,2.91,18.58,6.27,37.1,8.45,55.77.83,7.07-.67,14.53-1.75,21.71-3.39,22.54-7.09,45-10.68,67.55-.15,1-.34,2-.54,2.94-.7,3.43-2.51,6.07-6.2,6.09-3.9,0-6-2.52-6.48-6.3-1.24-9.07-2.51-18.13-3.72-27.21Q4.38,543.42.78,516.19A6.89,6.89,0,0,0,0,514.42Z"/><path d="M824.55,370.13c1,46.47,2.6,92.94,2.83,139.42.11,22.28-2.28,44.57-3.61,66.85q-2.84,47.9-5.77,95.78a22.14,22.14,0,0,1-19.24,21c-9.87,1.34-20.07-5.26-23.06-15.24a40.56,40.56,0,0,1-1.32-9.35c-2.83-50.9-6.31-101.77-8.11-152.71-1-29.6.53-59.29,1.11-88.94q1.68-87.21,3.57-174.41c1.24-60.81,2.69-121.61,3.5-182.41C774.66,54.82,786,45.8,796.34,46c12.75.3,21.4,9.9,21.71,24.26q3.24,149.93,6.52,299.84Z"/><path d="M755.34,389.45c.83,38,2.22,76,2.3,114,0,23.46-1.79,46.94-3,70.4q-2.56,50.67-5.48,101.32a20.06,20.06,0,0,1-18.38,19.17A20.33,20.33,0,0,1,709.54,679c-1-4.33-1-8.92-1.25-13.4-2.41-50.94-5.13-101.86-6.95-152.81-.75-20.79.47-41.66.87-62.48q3.3-172.45,6.63-344.92c.23-12,8.41-20.79,19.55-21,11.59-.26,20.52,8,20.83,20.23,1.06,40.81,1.88,81.64,2.75,122.46Q753.7,308.22,755.34,389.45Z"/><path d="M636.4,421.68q2.85-117.21,5.7-234.42c.15-6,.28-12,.61-18,.6-11.16,8.22-18.82,18.6-18.89s18.42,7.48,19,18.53c.69,14.31,1,28.64,1.4,43q2.7,98.46,5.38,196.91c.83,30.32,2.35,60.64,2.4,91,0,22.79-1.63,45.6-2.84,68.38-1.72,32.45-3.72,64.88-5.62,97.32-.24,4-.4,8-.88,12a18.55,18.55,0,0,1-18.89,16.42c-9.73-.12-17.71-7.12-18.32-17-1.49-23.78-2.62-47.59-3.87-71.38-1.57-30-3.53-59.9-4.5-89.87-.57-17.63.54-35.31.73-53,.14-13.66,0-27.32,0-41Z"/><path d="M570.07,419.87c2.37-90,4.63-176.48,6.92-262.94.28-10.44,7.66-18.07,17.44-18.17s17.3,7.49,17.61,17.92q3.56,120.69,7.07,241.37c1,35.82,2.54,71.63,3,107.45.21,17.28-1.45,34.6-2.5,51.89-2.1,34.59-4.36,69.18-6.56,103.76-.33,5.32-.59,10.65-1,16a17.57,17.57,0,0,1-17.56,16.42A17.3,17.3,0,0,1,577.05,677c-2.4-41.59-4.09-83.23-7.2-124.76C566.45,506.86,569.59,461.61,570.07,419.87Z"/><path d="M506.66,333.69q2.63-93,5.27-185.92c.25-8.83,5.71-15.4,13.65-16.6a15.74,15.74,0,0,1,17.78,11.18,24.37,24.37,0,0,1,.85,6.39q3,91.7,5.85,183.4c1.85,58.14,4.07,116.26,5.38,174.41.38,16.76-1.74,33.59-2.86,50.37q-3.2,47.64-6.57,95.25c-.61,8.81-1.17,17.62-1.92,26.42s-7.58,15.2-16.18,15.11A16,16,0,0,1,512,678.28c-2.71-44.07-4.78-88.2-8.19-132.21-3.42-44.21.06-88.29.73-132.41.39-26.66,1.44-53.31,2.19-80Z"/><path d="M441.66,342.74q2.7-89.21,5.41-178.41a60.92,60.92,0,0,1,.34-6.49c1.21-8.71,7.35-14,15.62-13.57,7.73.39,13.57,6.49,13.93,14.91.67,15.65,1.2,31.31,1.74,47q3.21,92.94,6.37,185.88c1.29,37.14,3.21,74.27,3.69,111.42.25,19.27-1.84,38.58-3.18,57.86-2.05,29.75-4.36,59.48-6.55,89.22-.7,9.47-1.31,19-2.08,28.42-.67,8.32-6.66,14.25-14.42,14.5a14.33,14.33,0,0,1-14.95-13.22c-1.22-11.25-1.72-22.58-2.44-33.89-2.83-44.23-6.22-88.44-8.17-132.71-1-21.58.7-43.29,1.34-64.94C439.36,413.36,440.54,378.05,441.66,342.74Z"/><path d="M375.66,369.36c2.46-69.41,4.42-125.2,6.43-181,.32-8.8,6-14.9,13.62-14.91s13.07,6,13.43,15q4,98.15,8,196.28c1.67,40.79,3.89,81.57,4.73,122.37.37,17.92-2,35.9-3.31,53.83-2.42,32.22-5,64.43-7.55,96.65-.62,8-1.22,16-1.94,23.91-.7,7.8-6,13-13.08,13.13-7.36.14-13.07-5-13.79-13-.84-9.12-1.35-18.27-2-27.41-3.13-46.37-6.74-92.72-9.16-139.13-.95-18.41.63-37,1.27-55.44C373.53,425,374.88,390.36,375.66,369.36Z"/><path d="M313.33,380.54q3.12-65.64,6.25-131.28c.05-1,.12-2,.22-3,.7-7.08,5.39-11.81,11.77-11.89s11.51,4.65,12.22,11.54c.59,5.79.74,11.63,1,17.45,4,74.19,7.6,148.4,12.12,222.56,1.62,26.47-1.47,52.54-3.45,78.74-2.28,30.22-5,60.41-7.49,90.62-.71,8.63-1.33,17.27-2.12,25.89-.67,7.29-5.65,12.23-12.09,12.26s-11.41-4.65-12-12.19c-2.05-25.9-3.91-51.82-5.82-77.73-2.2-29.73-4.56-59.45-6.45-89.2-.53-8.27.22-16.64.61-25q2.53-54.42,5.22-108.82Z"/><path d="M293.17,511.2c-1.88,21.39-3.74,42.63-5.62,63.86q-4.26,48.27-8.55,96.55c-.31,3.48-.56,7-1,10.44-.76,6-5.14,10-10.62,10a10.41,10.41,0,0,1-10.49-9.48c-1.18-10.76-1.95-21.56-2.79-32.35-3.28-42-6.32-84-9.88-126-1.48-17.43,1-34.57,2.28-51.8,2.28-31.06,5-62.09,7.53-93.13.88-10.62,1.59-21.27,2.82-31.85.85-7.31,7.23-11.36,13.6-9.28,4.85,1.59,7.16,5.14,7.63,10.07q3.92,41.52,7.83,83.06,3.44,36.56,6.8,73.13C292.92,506.69,293,509,293.17,511.2Z"/><path d="M180.09,511c1.45-18.31,2.88-36.4,4.34-54.49q3.78-47.07,7.57-94.12c.71-8.8,1.32-17.61,2.12-26.4.54-5.94,4.36-9.64,9.54-9.56,4.91.08,8.64,3.65,9.19,9.41,2.45,25.86,4.77,51.73,7.15,77.6,2.86,31,6.08,62,8.39,93,.71,9.52-.87,19.24-1.76,28.84q-5.22,56.19-10.69,112.38c-1,10.61-2,21.22-3,31.83-.61,5.94-4.44,9.88-9.36,9.88-5.09,0-9-4.15-9.48-10.33q-3.5-41.58-6.95-83.14-3.42-41.08-6.82-82.15C180.21,512.73,180.14,511.74,180.09,511Z"/><path d="M165.09,510.68q-2.28,22.12-4.56,44.23-4.75,46-9.52,91.92c-1,9.28-1.88,18.56-3,27.82-.6,5.1-3.66,8-8,7.89s-7.43-3-7.9-8.09c-2.44-26-4.76-52.07-7.13-78.11-2.47-27.2-5.31-54.37-7.2-81.61-.68-9.7.74-19.58,1.57-29.34,3.14-36.68,6.43-73.33,9.66-110q1.5-16.92,3-33.84c.52-5.8,3.33-9.07,7.91-9.2s7.59,2.9,8.2,8.81q4.46,43.48,8.8,87,3.88,38.76,7.73,77.54C164.84,507.35,165,509,165.09,510.68Z"/><path d="M101.75,510.42c-1.66,13.33-3.25,26.38-4.92,39.41-4.25,33.18-8.46,66.36-12.9,99.51a12,12,0,0,1-3.74,7.11c-3.54,2.91-8.57.27-9.45-5-1.17-7.05-1.82-14.19-2.62-21.3C63.83,592,59.21,553.8,55.53,515.53c-.93-9.61.91-19.55,1.94-29.29C61.55,448,65.85,409.81,70,371.58c.83-7.63,2.64-10.86,6.93-11.08s6.39,2.65,7.39,10.51Q93,440.12,101.63,509.22C101.7,509.71,101.73,510.21,101.75,510.42Z"/></svg>