<svg xmlns="http://www.w3.org/2000/svg" width="1280.08" height="1280.08" viewBox="0 0 1280.08 1280.08"><path d="M1280.08,640.22c-.21,352.12-288.64,640.33-640.35,639.86C287.46,1279.62-.49,991.33,0,639.6.49,287.38,289.1-.78,640.6,0,992.9.78,1280.29,288.5,1280.08,640.22Zm-728.17-267c-75.62.7-135.06,4.79-194.17,13.56A1108.64,1108.64,0,0,0,245.66,409c-16.31,4.17-28.48,13.75-34.66,29.66-7.09,18.25-7,36.76-.19,55.15,7.09,19.06,25.25,36.13,52,32.21,13-1.9,25.89-4.12,38.79-6.45,32.58-5.88,65-12.45,97.73-17.74,40.16-6.5,80.7-9.71,121.38-10.76a1048.46,1048.46,0,0,1,230,19.85c62.7,12.34,124,29.55,182.82,54.63,26.91,11.46,53.28,24.22,79.67,36.85,20.63,9.88,39.91,6.41,57.42-6.19,17.91-12.89,27.48-31.32,26.42-53.66-1-21-12.58-37-29.6-48-13.61-8.8-28.52-15.77-43.31-22.53-102.76-46.94-210.89-74.61-322.64-88.94C646.6,376.11,591.4,373,551.91,373.24ZM536.36,578.8A744,744,0,0,0,431,585.39c-37.17,4.91-73.78,12.79-110.15,21.77-15.14,3.74-30.56,6.55-44.3,14.8-13,7.79-20.87,18.43-23.22,33.6C248.23,688.68,269.73,714,303,713.8c9.92,0,18.71-4,28-6.18a923.27,923.27,0,0,1,144.6-21.47,883.71,883.71,0,0,1,121.88.71c51.28,3.65,101.9,11.38,151.67,24.3,60.61,15.73,118.26,38.49,171.41,72.08a101.33,101.33,0,0,0,23.19,10.31c16.31,5.21,31.33,1.73,44.31-9.39,9.78-8.38,15.56-19.44,19-31.67,1.25-4.4,2.59-9.2,2.09-13.61-2.27-20-14.22-33.8-30.67-43.75-14.23-8.61-29-16.46-43.77-24-74.08-37.77-152.33-63.18-234.06-77.9A908.81,908.81,0,0,0,536.36,578.8Zm25,205.19c-70.5.2-129.87,6.56-188.74,17.85Q341,807.9,309.46,814.15A30.22,30.22,0,0,0,287,831.53a50.94,50.94,0,0,0-4,31.69c3.79,20.77,25.75,36,45.1,31.56,8.57-2,17.18-3.87,25.83-5.41,26.22-4.67,52.42-9.47,78.71-13.63,61.33-9.71,122.88-12.51,184.78-5.89a662.73,662.73,0,0,1,142.16,30.8c39.94,13.47,77.41,32.07,113.7,53.29,16.65,9.74,33.49,8,46.91-5.81,6.5-6.67,11.12-15.2,16.37-23,3.17-4.71,3-10.05,2-15.42-3-16.18-14.06-26.74-27.25-34C799.15,814.14,678.75,784.23,561.38,784Z"/></svg>