<svg xmlns="http://www.w3.org/2000/svg" width="1280.23" height="1174.57" viewBox="0 0 1280.23 1174.57"><path d="M703.71,951.43,640.56,1006c-31.89,27.58-63.57,55.4-95.74,82.65-21.39,18.11-45.91,23.21-73.39,16.36-25.82-6.43-41.9-23.78-52.11-46.48-9.31-20.7-16.53-42.42-23.63-64Q358.12,880,321.32,765.25c-1-3.23-2.84-4.79-5.83-6Q194,709.64,72.52,659.87c-21.14-8.66-40.15-20.42-53.52-39.5C-20.64,563.85,8.32,504.68,45.86,481.83c15.52-9.45,32.61-16.48,49.37-23.71q228.92-98.74,458-197.14Q834.78,140,1116.43,19.23c17.73-7.61,35.53-14.92,54.84-18a93.51,93.51,0,0,1,108.22,82.47c2.43,21.78-1.52,42.8-5.63,63.9q-22.33,114.42-44.6,228.86-22.77,116.88-45.55,233.76-22.23,114.19-44.43,228.39Q1117,953,1094.71,1067.46c-1.82,9.29-3.22,18.87-6.6,27.62-15.27,39.62-42.22,68-84.54,76.78-40.7,8.48-76.35-2.86-104.35-35.15-7.06-8.14-15.47-15.14-23.33-22.58q-84.24-79.73-168.52-159.42C706.29,953.69,705.16,952.73,703.71,951.43Zm279.58,114.46,3.26-5.4c.35-.57.73-1.12,1-1.71a5.47,5.47,0,0,0,.51-1.4q91.53-470,183-940.08a34.87,34.87,0,0,0,.38-4c0-.13-.13-.29-.23-.42s-.23-.2-1.1-.94L119.47,563.68c2,.9,2.56,1.19,3.17,1.44q119.88,49,239.72,98.14c3,1.23,5,.38,7.33-1,189.12-111,379.64-219.58,566.43-334.5a50.86,50.86,0,0,1,15.07-6.3c8.39-1.9,15.11,3.81,14.82,12.37a19.56,19.56,0,0,1-3.48,10.11,136.49,136.49,0,0,1-13,15.16Q763.73,551.17,577.88,743.2a15.79,15.79,0,0,0-3.78,6.74q-19.11,75.75-38,151.57c-5.6,22.4-11.21,44.81-17.17,68.59,63.33-54.71,125.62-108.54,188-162.49,1.83,1.71,3.29,3.06,4.73,4.42Q840.34,933.67,969,1055.22C973.12,1059.14,978.15,1062.1,983.29,1065.89Z"/></svg>